<svg id="Layer_1" data-name="Layer 1" xmlns="http://www.w3.org/2000/svg" viewBox="0 0 512 512"><title>sports-car-glyph</title><path d="M22.51,187.3c0-4.2,8.55-8.9,20.81-8.9a38.9,38.9,0,0,1,12.5,1.91c-6.51,1.65-10.3,4.36-10.3,7.67,0,2.88,2.83,5.32,7.91,7a41.17,41.17,0,0,1-10.11,1.21C31.05,196.2,22.51,191.51,22.51,187.3Zm444.27.68c0,2.88-2.82,5.32-7.9,7A41.09,41.09,0,0,0,469,196.2c12.27,0,20.8-4.68,20.8-8.89s-8.53-8.9-20.8-8.9a39.14,39.14,0,0,0-12.51,1.91C463,182,466.78,184.67,466.78,188ZM172,74H339.5c32.26,0,53.91,23.66,59.22,40.66A80.38,80.38,0,0,1,412,126.13c-3-8.82-5.12-15.17-5.12-15.21C401.78,92,379.6,65.47,346.42,65.47H165.09c-33.18,0-55.71,27.11-60.53,45.54l-5.12,15.23a82.13,82.13,0,0,1,13.31-11.43C117.75,98.16,139.75,74,172,74Zm271,144.8,4.07.6c-2.07-6-4.68-13.63-7.41-21.49-.22.33-.53.58-.73.93-2.58,4.72-1.18,11.4,4.17,19.89ZM78.16,196.18A16.26,16.26,0,0,1,80,205.34l3.91-9.82.75-1.91.82-2,5.41-13.69,1-2.49a49.82,49.82,0,0,1,4.18-9.23,58.15,58.15,0,0,1,4.56-6.88c11.23-14.66,31.06-27.38,58.11-27.38h194c26.79,0,47,13.17,58.18,27.55a56.71,56.71,0,0,1,4.42,6.49,46,46,0,0,1,4.28,9.45l1,2.49L426,191.59l.81,2,.77,1.91,5.06,12.8a17.5,17.5,0,0,1,1.44-12.14,16.09,16.09,0,0,1,3.5-4.28c-1.16-3.38-2.32-6.7-3.42-9.91-5-14.6-9.2-26.72-9.2-26.74a56.92,56.92,0,0,0-5.34-12.49,76.17,76.17,0,0,0-4.22-6.51,78,78,0,0,0-14.34-15.07c-1-.76-1.89-1.53-2.87-2.24s-1.81-1.22-2.72-1.83a69,69,0,0,0-38.36-11.65H154.38A68.92,68.92,0,0,0,116,117.23c-.91.6-1.84,1.18-2.72,1.84s-1.92,1.49-2.87,2.24a78.68,78.68,0,0,0-14.32,15,68.44,68.44,0,0,0-4.2,6.44,53.75,53.75,0,0,0-5.36,12.6L77.32,182l-3.24,9.38A17.1,17.1,0,0,1,78.16,196.18Zm-9,22.56c5.36-8.49,6.75-15.17,4.19-19.89a12.44,12.44,0,0,0-1.28-1.61L64.39,219.5l4.83-.73ZM512,251v58.92a43.36,43.36,0,0,1-6.25,4.91c-.58.4-1.28.83-1.94,1.24s-1.22.79-1.93,1.2a130.79,130.79,0,0,1-26.94,11.59,23.1,23.1,0,0,0-10.53-2.62c-.18,0-.32,0-.49,0a23.28,23.28,0,0,0-18.28,9.51A344,344,0,0,1,391,340.21v0c-.53,0-1.06-.17-1.59-.17H282.82l-.26,2.28-2.83,23.89h.16l.14-.11v.11H416.5c-1.59-9.8-7.07-18-14.45-22.49a339.52,339.52,0,0,0,41-3.63A23.31,23.31,0,0,0,463.92,373l.49,0a23.3,23.3,0,0,0,14.84-41.34,129.47,129.47,0,0,0,22.63-9.85c.67-.37,1.34-.74,1.93-1.12s1.32-.8,1.94-1.18A66.26,66.26,0,0,0,512,315v1.6c0,.45-1,34.17-11,58.31a76.19,76.19,0,0,1-3.58,7.46,54.81,54.81,0,0,1-3.33,5.26c-3.75,5.1-8.25,8.88-13.72,10.47-.8.13-6.69,1.1-16.45,2.59-13.26,2-33.59,4.95-57.7,7.89L417,381H278l-4.5,38.13v.13l-.22,1.91v0l-.24,1.93c10.21-.24,20.63-.66,31.08-1.24,63.93-3.51,129.53-12.63,159.83-17.2,10.67-1.62,17-2.69,17.23-2.71l.13,0,.1,0a26.52,26.52,0,0,0,10.08-5.7c-2.55,7.21-5.74,13.61-9.68,18.33a21.93,21.93,0,0,1-10.3,7.33c-.89.17-89.31,18-173.24,23.27-14.3.9-28.46,1.43-42,1.43h-.46c-13.88,0-28.38-.55-43-1.49C129.11,439.72,41.38,422,40.33,421.78a21.76,21.76,0,0,1-10.22-7.28c-3.93-4.72-7.11-11.15-9.64-18.38a26.43,26.43,0,0,0,10.13,5.74l.13,0,.09,0c.28,0,6.53,1.09,17.15,2.68,30.07,4.56,95.23,13.6,158.92,17.17,11,.63,21.87,1.07,32.55,1.32l-.21-1.95v0l-.22-1.89v-.15L234.47,381c-.22,0-.38,0-.63-.06H95l10.77,27.66c-24.17-3-44.55-5.89-57.81-7.89-9.71-1.49-15.55-2.45-16.33-2.59-5.5-1.58-10-5.38-13.8-10.54a52.2,52.2,0,0,1-3.26-5.18,74.09,74.09,0,0,1-3.62-7.57C1,350.7,0,317.1,0,316.59v-1.66a65.93,65.93,0,0,0,6.24,4.35c.64.4,1.23.79,1.94,1.22s1.3.71,1.92,1.07a134.91,134.91,0,0,0,22.75,10A23.3,23.3,0,0,0,47.6,373l.36,0a23.3,23.3,0,0,0,21-32.8,321.3,321.3,0,0,0,40.86,3.64c-7.33,4.5-12.76,12.67-14.36,22.41H231.91l0-.11.18.11h.66l-2.82-23.89-.26-2.28H122.57c-.45,0-.88.11-1.32.14a322.6,322.6,0,0,1-54.84-4.39A23.27,23.27,0,0,0,48,326.24c-.13,0-.24,0-.36,0a23.1,23.1,0,0,0-10.41,2.55A139.06,139.06,0,0,1,10.1,317c-.72-.43-1.28-.8-1.92-1.2s-1.37-.83-1.94-1.2A46.43,46.43,0,0,1,0,309.87V251c0-13,32.72-21.88,58.63-26.54l2.15-.37c.74-.11,1.45-.22,2.18-.36,3.73-.61,7.21-1.13,10.4-1.59,2.47-.32,4.75-.6,6.77-.83,1,1.46,3.68,5.29,7.26,10.77.39.62.82,1.26,1.24,1.91s.81,1.26,1.22,1.91c4.51,7.12,10,16.17,15.34,26.3l1.13,2.2c.37.7.74,1.41,1.09,2.13l.34.66c6.32,12.4,12.16,26,15.69,39l1.88-.51,1.84-.51c-3.34-12.37-8.78-25.26-14.72-37.18l-.37-.82c-.36-.68-.72-1.37-1.08-2.07s-.72-1.41-1.08-2.1c-5.32-10.26-10.82-19.6-15.5-27.06-.41-.66-.82-1.28-1.22-1.91L92,232c-3.07-4.77-5.59-8.49-7.2-10.83-.28-.4-.52-.74-.74-1.07.5-.28,1-.58,1.5-.85,1.25-.66,2.57-1.3,4-1.93a139.89,139.89,0,0,1,21-7.23c1.25-.33,2.53-.66,3.81-1l4.19-1c6.32-1.49,13-2.81,19.92-4,2.85-.49,5.7-1,8.61-1.41,3.18-.5,6.41-1,9.62-1.43l3.21-.45c43.11-5.71,87.58-7.09,96-6.26l.18,0,.18,0c8.45-.83,52.88.55,96,6.26l3.19.45c3.22.44,6.4.93,9.58,1.41,2.86.45,5.7.91,8.5,1.39,6.89,1.2,13.56,2.55,19.86,4,1.42.32,2.81.66,4.18,1s2.57.63,3.78,1a139.53,139.53,0,0,1,21.22,7.3c1.38.63,2.7,1.27,3.93,1.93.53.27,1,.57,1.53.85-.22.33-.47.67-.75,1.07-1.62,2.34-4.12,6.06-7.2,10.83-.39.65-.79,1.29-1.24,1.94s-.78,1.26-1.22,1.91c-4.65,7.46-10.14,16.78-15.43,27-.37.7-.74,1.4-1.1,2.1s-.71,1.37-1.07,2.09c-.13.26-.25.53-.39.79-5.94,12-11.38,24.86-14.75,37.27l1.86.51,1.86.51c3.55-13,9.44-26.62,15.75-39.05.1-.23.22-.43.33-.65.36-.73.74-1.44,1.11-2.16s.75-1.49,1.13-2.2c5.36-10.09,10.78-19.12,15.28-26.2l1.25-1.91c.4-.65.81-1.3,1.22-1.91,3.58-5.48,6.25-9.31,7.28-10.77,1.88.22,4,.47,6.25.77,3.18.43,6.67.95,10.4,1.56.72.13,1.44.24,2.18.36s1.42.24,2.17.37C478.85,228.94,512,237.84,512,251ZM120.25,312.07c1.39-10.55-5-15.89-8.68-17.23l.41.2C64.22,268,42.55,268.84,41.66,268.87c-9.59-.17-17,2.73-22,8.63-6.7,8-6.8,19.24-6.29,25.11.15,2,.37,3.32.43,3.72.13,2.78,1.11,6.45,34.15,10.7,3.82.5,8,1,12.73,1.5,21.91,2.34,44.09,3.72,44.31,3.74,5.94.39,10.28-.84,12.89-3.66A8.63,8.63,0,0,0,120.25,312.07ZM492.31,277.5c-4.93-5.9-12.41-8.8-22.17-8.63-.7,0-22.39-.88-70.14,26.17l.41-.2c-3.64,1.34-10.07,6.67-8.67,17.23a8.65,8.65,0,0,0,2.36,6.54c2.59,2.82,6.93,4,12.89,3.66.22,0,22.39-1.4,44.32-3.74,4.69-.5,8.82-1,12.61-1.49,33-4.22,34.11-7.88,34.23-10.68.08-.37.28-1.71.47-3.74C499.12,296.74,499,285.5,492.31,277.5Zm-426.81,6a13.77,13.77,0,1,0,13.77,13.77A13.78,13.78,0,0,0,65.5,283.47Zm30.32,12.39a11,11,0,0,0-6.6,19.78,11,11,0,0,0,17.62-8.74A11,11,0,0,0,95.82,295.87ZM47.6,367.5c.13,0,.23,0,.36,0a17.8,17.8,0,0,0,14-28.45,18.08,18.08,0,0,0-6.36-5.34A17.74,17.74,0,0,0,48,331.76c-.13,0-.24-.06-.36-.06l-.1,0a17.54,17.54,0,0,0-7.9,1.95,17.85,17.85,0,0,0,8,33.83Zm398.88-84a13.77,13.77,0,1,0,13.77,13.77A13.77,13.77,0,0,0,446.48,283.47Zm-30.32,12.39a11,11,0,1,0,11,11A11,11,0,0,0,416.16,295.87Zm48.51,35.88a1.19,1.19,0,0,0-.26,0c-.18,0-.32.06-.49.06a17.89,17.89,0,0,0-7.51,1.91A18.23,18.23,0,0,0,450,339a17.81,17.81,0,0,0,13.89,28.44c.17,0,.31,0,.49,0a17.84,17.84,0,0,0,8.14-33.74A17.65,17.65,0,0,0,464.67,331.74Z" fill="#5b5b5f"/></svg>